<?xml version="1.0" encoding="UTF-8" standalone="no"?>
<!-- Created with Inkscape (http://www.inkscape.org/) -->

<svg
   version="1.1"
   id="svg1"
   width="1152"
   height="720"
   viewBox="0 0 1152 720"
   sodipodi:docname="KŪK.svg"
   inkscape:version="1.4.2 (f4327f4, 2025-05-13)"
   xmlns:inkscape="http://www.inkscape.org/namespaces/inkscape"
   xmlns:sodipodi="http://sodipodi.sourceforge.net/DTD/sodipodi-0.dtd"
   xmlns="http://www.w3.org/2000/svg"
   xmlns:svg="http://www.w3.org/2000/svg">
  <defs
     id="defs1" />
  <sodipodi:namedview
     id="namedview1"
     pagecolor="#ffffff"
     bordercolor="#000000"
     borderopacity="0.25"
     inkscape:showpageshadow="2"
     inkscape:pageopacity="0.0"
     inkscape:pagecheckerboard="0"
     inkscape:deskcolor="#d1d1d1"
     showgrid="false"
     inkscape:zoom="1.1819444"
     inkscape:cx="576.16921"
     inkscape:cy="360"
     inkscape:window-width="1920"
     inkscape:window-height="1111"
     inkscape:window-x="-9"
     inkscape:window-y="-9"
     inkscape:window-maximized="1"
     inkscape:current-layer="g1" />
  <g
     inkscape:groupmode="layer"
     inkscape:label="Image"
     id="g1">
    <path
       style="fill:#000000"
       d="m 270.3819,377.10634 v -123.5 l 263.25,-0.0705 c 223.18661,-0.0597 262.68673,-0.27748 259.54889,-1.43072 -14.95006,-5.49458 -21.91791,-19.83899 -15.54353,-31.99882 4.1352,-7.88834 11.82881,-12.65581 24.26277,-15.03482 12.64157,-2.41873 25.14984,0.0102 34.09946,6.6217 6.2903,4.64691 8.39916,8.21681 8.3373,14.11346 l -0.0451,4.29966 -1.29387,-3 -1.29386,-3 0.0684,4.5 c 0.0376,2.475 -0.69789,6.00769 -1.63447,7.85041 -1.24136,2.44235 -1.32097,3.03344 -0.29373,2.1809 0.77504,-0.64323 1.69885,-2.48841 2.0529,-4.1004 1.03073,-4.69287 2.75876,-3.53771 1.97327,1.31909 -0.90293,5.583 -6.13938,11.13531 -13.98844,14.83222 l -6,2.826 43.75,0.0459 43.75,0.0459 v 123.5 123.5 h -320.5 -320.5 z m 399.26035,117.5 c 3.07226,-2.2 6.01542,-4 6.54034,-4 0.52493,0 1.51462,-0.675 2.19931,-1.5 0.68468,-0.825 2.05228,-1.5 3.03911,-1.5 0.98682,0 1.94422,-0.36406 2.12755,-0.80902 0.18334,-0.44496 4.15834,-2.31321 8.83334,-4.15165 4.675,-1.83845 9.175,-4.10761 10,-5.04258 0.825,-0.93497 5.48829,-3.79173 10.36288,-6.34835 l 8.86289,-4.6484 h 93.38711 93.38712 v -11.49405 -11.49405 l -80.19249,-0.25595 -80.19248,-0.25595 4.85091,-5.46176 c 5.66736,-6.38102 14.3185,-19.33122 15.16383,-22.69927 l 0.58704,-2.33897 h 69.89159 69.8916 v -11.5 -11.5 h -65.56128 -65.56127 l 0.81127,-4.75 c 1.04977,-6.14641 1.03712,-16.60448 -0.0266,-22 l -0.8379,-4.25 h 65.5879 65.5879 v -11.5 -11.5 h -72.61053 -72.61053 l -7.58725,-3.75 c -6.37414,-3.15042 -8.8181,-3.80614 -15.28556,-4.10116 -8.57688,-0.39125 -16.5463,1.42862 -23.78209,5.43079 -4.24283,2.34674 -5.02079,2.42037 -25.57242,2.42037 h -21.19646 l -5.42758,-2.90252 c -12.1892,-6.51845 -25.71049,-6.80603 -38.09945,-0.81032 l -7.67187,3.71284 h -66.57813 -66.57813 v -2.56574 c 0,-1.41116 -0.46584,-3.43616 -1.03519,-4.5 -0.97918,-1.82962 -2.32974,-1.93426 -24.96481,-1.93426 -22.63507,0 -23.98564,0.10464 -24.96482,1.93426 -0.56935,1.06384 -1.03518,3.08884 -1.03518,4.5 v 2.56574 h -80.5 -80.5 v 11.5 11.5 h 29 29 v 15.5 15.5 h -29 -29 v 11.5 11.5 h 29 29 v 15.5 15.5 h -29 -29 v 11.5 11.5 h 170.99152 c 169.90852,0 170.99944,0.0127 172.24055,2 0.73973,1.18451 2.33203,2 3.90509,2 1.90661,0 3.67201,1.21564 6.25647,4.30812 1.98021,2.36946 7.23101,6.98196 11.66844,10.25 4.43744,3.26803 9.8755,7.62938 12.08459,9.69188 3.58613,3.34816 4.57971,3.75 9.27214,3.75 4.53389,0 6.02269,-0.54929 10.84155,-4 z m -394.26035,-39 v -9 h 27.5 27.5 v 6.96482 c 0,7.98177 0.93271,9.03518 8,9.03518 7.06728,0 8,-1.05341 8,-9.03518 v -6.96482 l 14.75,0.0116 14.75,0.0116 5,7.08992 c 2.75,3.89945 6.04179,7.49424 7.3151,7.98841 3.80975,1.47857 11.85989,1.08064 13.61347,-0.67294 2.15953,-2.15953 2.10226,-2.36169 -2.48361,-8.76578 l -4.05504,-5.66279 h 13.84841 13.84842 l 6.02677,5.86086 c 7.41903,7.21479 14.38607,10.12015 26.0946,10.88185 15.12432,0.98392 28.46497,-3.58821 36.23888,-12.41984 l 3.80514,-4.32287 h 17.12393 17.12393 v 7.38337 c 0,8.29973 0.27822,8.57553 8.67857,8.60298 5.95728,0.0195 7.32143,-1.76137 7.32143,-9.55778 v -6.42857 h 14.44155 14.44155 l 4.6928,6.25 c 6.63845,8.84128 7.88143,9.75225 13.28488,9.73635 9.89953,-0.0291 11.48362,-2.42649 6.33434,-9.58631 -4.70358,-6.5401 -4.69537,-6.40004 -0.37546,-6.40004 4.25505,0 4.8562,0.78831 7.04426,9.23732 1.01113,3.90439 2.28752,5.61356 5.63608,7.54705 1.51801,0.87651 -38.66731,1.16214 -166.75,1.18522 l -168.75,0.0304 z m 453,6.24681 c 1.925,-1.50206 6.7436,-5.54707 10.70799,-8.98891 l 7.208,-6.2579 h 80.042 80.04201 v 9 9 l -90.75,-0.0111 -90.75,-0.0111 z m -279,-13.74681 c -3.19735,-1.23129 -2.28939,-1.34535 10.5,-1.31907 12.96397,0.0266 13.70399,0.12634 10,1.34707 -5.17843,1.70668 -16.03401,1.69185 -20.5,-0.028 z m -103.39302,-6.08179 c -0.7846,-2.04465 -0.76558,-24.22449 0.0233,-27.16821 0.73652,-2.74832 4.28025,-3.02047 6.39747,-0.49131 2.37502,2.83712 17.53832,23.48925 19.45057,26.49131 l 1.7517,2.75 h -13.50803 c -11.39505,0 -13.60296,-0.24743 -14.11501,-1.58179 z m 44.2673,-1.16821 c -2.8879,-3.17683 -16.62245,-21.43007 -19.18733,-25.5 l -1.73306,-2.75 h 24.52305 24.52306 v 8.31763 c 0,4.94358 0.76492,11.23116 1.88567,15.5 l 1.88567,7.18237 h -14.69858 -14.69858 z m 48.90129,1 c -4.21143,-4.80319 -7.69305,-19.65596 -6.21183,-26.5 l 0.59517,-2.75 h 26.42054 26.42055 v 7.3185 c 0,8.73625 -2.10125,16.45995 -5.61356,20.63408 l -2.56423,3.04742 h -18.75612 c -16.61177,0 -18.93154,-0.20007 -20.29052,-1.75 z m 59.17523,-4.57798 c 0.9953,-3.48039 2.13631,-10.45539 2.53558,-15.5 l 0.72594,-9.17202 h 13.89384 13.89384 v 15.5 15.5 h -16.42942 -16.42942 z m 46.0492,-9.17202 v -15.5 h 2.56456 c 1.57153,0 3.45823,1.06484 4.87251,2.75 2.88586,3.43859 16.63301,21.90113 19.0194,25.54322 l 1.77355,2.70678 H 558.49691 544.3819 Z m 35.08821,0.24327 -11.41179,-15.24327 11.66813,-0.28179 c 6.41747,-0.15498 12.48117,0.15334 13.47488,0.68516 1.39052,0.74418 2.1117,3.22807 3.13041,10.78179 0.72801,5.39816 2.16212,11.48442 3.18691,13.525 1.02478,2.04059 1.86325,4.17809 1.86325,4.75 0,0.5886 -2.27827,1.03692 -5.25,1.03311 l -5.25,-0.007 z M 275.3819,401.60634 v -9 h 27.5 27.5 v 9 9 h -27.5 -27.5 z m 71,7.44099 c 0,-0.85746 0.45,-1.28091 1,-0.94099 0.55,0.33992 1,1.04148 1,1.55902 0,0.51754 -0.45,0.94098 -1,0.94098 -0.55,0 -1,-0.70156 -1,-1.55901 z m 18.68759,-2.45893 -2.8124,-3.97523 4.21894,-5.00342 4.21894,-5.00341 h 23.34346 23.34347 v 9 9 l -24.75,-0.0213 -24.75,-0.0213 z m 68.31241,-4.98206 v -9 h 26 26 v 9 9 h -26 -26 z m 68,0 v -9 h 14 14 v 9 9 h -14 -14 z m 44,7.5 c 0,-0.825 0.17685,-1.5 0.39301,-1.5 0.21615,0 0.65203,0.675 0.96861,1.5 0.31658,0.825 0.13973,1.5 -0.39301,1.5 -0.53274,0 -0.96861,-0.675 -0.96861,-1.5 z m 18.48755,-2.51796 -2.78445,-4.01796 4.00827,-4.73204 4.00827,-4.73204 12.25575,-0.2817 12.25575,-0.28171 -2.69572,3.20368 c -2.37296,2.82011 -2.6562,3.9017 -2.36557,9.03353 l 0.33015,5.82985 -11.114,-0.002 -11.114,-0.002 z m 206.51245,3.6555 c 0,-0.19935 1.35,-3.63625 3,-7.63754 1.65,-4.00129 3,-7.88818 3,-8.63754 0,-1.13597 10.80516,-1.36246 65,-1.36246 h 65 v 9 9 h -68 c -37.4,0 -68,-0.16311 -68,-0.36246 z m -424,-14.07852 c 0,-3.30535 0.21867,-3.55902 3.06809,-3.55902 h 3.06809 l -2.11465,2.96976 c -3.14977,4.42345 -4.02153,4.55118 -4.02153,0.58926 z m 199,0.14098 c 0,-3.48959 0.18051,-3.7 3.17431,-3.7 h 3.17431 l -2.40933,2.75 c -1.32513,1.5125 -2.75358,3.1775 -3.17431,3.7 -0.42074,0.5225 -0.76498,-0.715 -0.76498,-2.75 z m -199.39302,-8.28179 c -0.7846,-2.04465 -0.76558,-24.22449 0.0233,-27.16821 0.5942,-2.21724 0.84151,-2.25 16.98635,-2.25 9.01085,0 16.38337,0.37428 16.38337,0.83174 0,0.83302 -16.90577,22.2444 -21.64863,27.41826 -2.0024,2.18437 -3.40704,2.75 -6.82915,2.75 -3.00607,0 -4.49171,-0.4781 -4.91524,-1.58179 z m 28.94911,-1.14417 c 2.19422,-3.3488 15.49785,-19.40657 20.31781,-24.52404 l 3.53199,-3.75 h 9.79705 9.79706 v 15.5 15.5 h -22.61501 -22.61501 z m 58.05089,1.14417 c -0.7846,-2.04465 -0.76558,-24.22449 0.0233,-27.16821 l 0.60298,-2.25 h 26.38337 26.38337 v 15.5 15.5 h -26.39302 c -23.14448,0 -26.46772,-0.19469 -27,-1.58179 z m 68.39302,-13.91821 v -15.5 h 14 14 v 15.5 15.5 h -14 -14 z m 43,0.0523 v -15.55226 h 17.05653 17.05654 l -1.68726,2.8563 c -0.92799,1.57096 -6.25944,8.43346 -11.84767,15.25 l -10.16043,12.3937 -5.20886,0.30226 -5.20885,0.30226 z m 28,14.65821 c 0,-0.93014 16.55359,-21.03296 21.78877,-26.46047 2.75779,-2.85909 4.4086,-3.75 6.94862,-3.75 h 3.33149 l -0.71399,5.25 c -0.92694,6.81576 -0.9878,17.56739 -0.11757,20.7687 0.61605,2.26626 0.28926,2.6421 -3.26058,3.75 -4.32166,1.34878 -27.97674,1.72231 -27.97674,0.44177 z M 690.02106,361.1084 c -0.89287,-2.32678 -0.83257,-2.50206 0.86084,-2.50206 1.68344,0 1.87336,0.8627 0.62385,2.83385 -0.67448,1.06402 -0.97482,0.9969 -1.48469,-0.33179 z M 275.3819,347.60634 v -9 h 170.04804 170.04804 l -3.11902,4.53334 c -1.71546,2.49333 -4.00814,6.54333 -5.09484,9 -1.69619,3.83454 -2.39375,4.46666 -4.92902,4.46666 -2.26891,0 -2.9532,-0.45527 -2.9532,-1.96481 0,-4.94141 -11.90148,-5.41989 -16.85147,-0.67749 l -2.75797,2.6423 h -17.08688 -17.08687 l -0.59747,-2.38051 c -1.31297,-5.23128 -15.61934,-4.85053 -15.61934,0.4157 0,1.85952 -0.75024,1.96481 -14,1.96481 -13.24977,0 -14,-0.10529 -14,-1.96481 0,-5.26623 -14.30638,-5.64698 -15.61935,-0.4157 l -0.59747,2.38051 h -25.89159 c -25.07038,0 -25.89159,-0.0623 -25.89159,-1.96481 0,-5.26623 -14.30638,-5.64698 -15.61935,-0.4157 -0.57067,2.27374 -0.97865,2.38051 -9.09605,2.38051 -6.69461,0 -8.38938,-0.28458 -7.98411,-1.34068 1.13046,-2.94594 -1.11535,-4.15932 -7.69836,-4.15932 -5.69655,0 -6.81426,0.32905 -9.34119,2.75 l -2.87038,2.75 h -17.19528 c -16.59868,0 -17.19528,-0.0703 -17.19528,-2.02475 0,-2.37169 -3.48156,-3.97525 -8.63085,-3.97525 -4.51939,0 -7.36915,1.56047 -7.36915,4.03519 0,1.90545 -0.83082,1.96481 -27.5,1.96481 h -27.5 z m 410.42001,5.75 c -0.89725,-1.7875 -4.15722,-5.8375 -7.24438,-9 l -5.61303,-5.75 h 17.85554 17.85554 l -4.49142,4.80169 c -2.47028,2.64093 -5.74165,6.69093 -7.26972,9 -2.3421,3.53914 -3.30295,4.19831 -6.11975,4.19831 -2.76852,0 -3.62114,-0.55723 -4.97278,-3.25 z m 90.57999,1.87831 c 0,-0.75443 -2.24092,-4.80443 -4.97982,-9 l -4.97981,-7.62831 h 69.97981 69.97982 v 9 9 h -65 c -54.40891,0 -65,-0.2235 -65,-1.37169 z m 132,-62.12831 v -11.5 h -318 -318 v 11.5 11.5 h 318 318 z m -633,0.5 v -9 h 315.5 315.5 v 9 9 h -315.5 -315.5 z m 547.04929,-92.69098 c 0.0578,-4.46555 5.57727,-18.11773 9.04238,-22.36586 5.65675,-6.93503 34.78314,-23.94316 41.00263,-23.94316 2.82973,0 2.93043,0.11813 1.40292,1.64563 -0.90509,0.9051 -3.07473,2.39532 -4.82142,3.31162 -26.11446,13.69932 -34.2373,19.49887 -36.8239,26.29157 -0.5757,1.51184 -1.42049,2.51781 -1.87732,2.23548 -0.67227,-0.41549 -2.02306,2.05761 -2.46646,4.5157 -0.45341,2.51357 -3.86296,11.10127 -4.58458,11.54726 -0.50795,0.31393 -0.90136,-1.14328 -0.87425,-3.23824 z m 26.95071,-31.916 c 0,-0.21616 -0.92656,-0.39302 -2.05902,-0.39302 -1.13246,0 -1.79305,0.43035 -1.46798,0.95633 0.53362,0.8634 3.527,0.38532 3.527,-0.56331 z"
       id="path1" />
  </g>
</svg>
